<svg xmlns="http://www.w3.org/2000/svg" width="256" height="256" viewBox="0 0 100 100"><rect width="100" height="100" rx="20" fill="#000000"></rect><path d="M45.19 50.10L42.32 68.66Q40.89 70.61 39.01 71.98L39.01 71.98Q33.95 75.67 26.87 75.57L26.87 75.57Q20.48 75.50 16.83 71.23Q13.17 66.95 12.96 59.67L12.96 59.67Q12.90 57.18 13.20 54.68L13.20 54.68L14.74 44.87Q16.31 35.03 21.00 29.77L21.00 29.77Q25.92 24.26 34.02 24.43L34.02 24.43Q40.44 24.64 43.84 28.67Q47.25 32.71 47.11 39.75L47.11 39.75L41.02 39.71Q41.02 34.65 39.13 32.30Q37.23 29.94 33.71 29.84L33.71 29.84Q28.62 29.60 25.37 33.22Q22.12 36.84 20.86 44.77L20.86 44.77L19.29 55.20L19.08 58.00L19.08 60.36Q19.63 70.06 27.11 70.20L27.11 70.20Q29.81 70.27 31.93 69.40Q34.05 68.53 36.14 66.92L36.14 66.92L38.22 55.44L29.37 55.44L30.33 50.10L45.19 50.10ZM70.35 55.44L60.68 55.40L57.29 74.88L51.18 74.88L59.79 25.12L74.79 25.15Q80.91 25.36 84.23 29.48Q87.54 33.59 86.96 40.05L86.96 40.05Q86.35 47.16 81.87 51.30Q77.39 55.44 70.35 55.44L70.35 55.44ZM64.98 30.52L61.60 50.04L70.59 50.10Q73.97 50.10 76.47 48.34Q78.96 46.58 80.13 43.32Q81.29 40.05 80.88 36.71L80.88 36.71Q80.54 33.94 78.93 32.31Q77.32 30.69 74.66 30.55L74.66 30.55L64.98 30.52Z" fill="#fff"></path></svg>